<?xml version="1.0" encoding="UTF-8" standalone="no"?>
<!DOCTYPE svg PUBLIC "-//W3C//DTD SVG 1.1//EN"
 "http://www.w3.org/Graphics/SVG/1.1/DTD/svg11.dtd">
<!-- Generated by graphviz version 5.0.0 (20220707.1540)
 -->
<!-- Title: dependencies Pages: 1 -->
<svg width="502pt" height="174pt"
 viewBox="0.00 0.00 502.00 173.80" xmlns="http://www.w3.org/2000/svg" xmlns:xlink="http://www.w3.org/1999/xlink">
<g id="graph0" class="graph" transform="scale(1 1) rotate(0) translate(4 169.8)">
<title>dependencies</title>
<polygon fill="white" stroke="transparent" points="-4,4 -4,-169.8 498,-169.8 498,4 -4,4"/>
<text text-anchor="middle" x="247" y="-8.2" font-family="sans-serif" font-size="14.00">dependencies</text>
<g id="clust1" class="cluster">
<title>cluster_ApiModule</title>
<polygon fill="none" stroke="black" stroke-dasharray="1,5" points="8,-32.8 8,-157.8 486,-157.8 486,-32.8 8,-32.8"/>
</g>
<g id="clust6" class="cluster">
<title>cluster_ApiModule_providers</title>
<polygon fill="none" stroke="black" points="354,-40.8 354,-92.8 478,-92.8 478,-40.8 354,-40.8"/>
</g>
<g id="clust3" class="cluster">
<title>cluster_ApiModule_imports</title>
<polygon fill="none" stroke="black" points="16,-40.8 16,-92.8 346,-92.8 346,-40.8 16,-40.8"/>
</g>
<!-- AuthModule -->
<g id="node1" class="node">
<title>AuthModule</title>
<polygon fill="#8dd3c7" stroke="black" points="337.55,-84.8 334.55,-88.8 313.55,-88.8 310.55,-84.8 250.45,-84.8 250.45,-48.8 337.55,-48.8 337.55,-84.8"/>
<text text-anchor="middle" x="294" y="-62.6" font-family="Times,serif" font-size="14.00">AuthModule</text>
</g>
<!-- ApiModule -->
<g id="node4" class="node">
<title>ApiModule</title>
<polygon fill="#8dd3c7" stroke="black" points="278.05,-149.8 275.05,-153.8 254.05,-153.8 251.05,-149.8 197.95,-149.8 197.95,-113.8 278.05,-113.8 278.05,-149.8"/>
<text text-anchor="middle" x="238" y="-127.6" font-family="Times,serif" font-size="14.00">ApiModule</text>
</g>
<!-- AuthModule&#45;&gt;ApiModule -->
<g id="edge1" class="edge">
<title>AuthModule&#45;&gt;ApiModule</title>
<path fill="none" stroke="black" d="M264.25,-84.91C264.25,-84.91 264.25,-103.79 264.25,-103.79"/>
<polygon fill="black" stroke="black" points="260.75,-103.79 264.25,-113.79 267.75,-103.79 260.75,-103.79"/>
</g>
<!-- GamesModule -->
<g id="node2" class="node">
<title>GamesModule</title>
<polygon fill="#8dd3c7" stroke="black" points="232.43,-84.8 229.43,-88.8 208.43,-88.8 205.43,-84.8 133.57,-84.8 133.57,-48.8 232.43,-48.8 232.43,-84.8"/>
<text text-anchor="middle" x="183" y="-62.6" font-family="Times,serif" font-size="14.00">GamesModule</text>
</g>
<!-- GamesModule&#45;&gt;ApiModule -->
<g id="edge2" class="edge">
<title>GamesModule&#45;&gt;ApiModule</title>
<path fill="none" stroke="black" d="M214.97,-84.91C214.97,-84.91 214.97,-103.79 214.97,-103.79"/>
<polygon fill="black" stroke="black" points="211.47,-103.79 214.97,-113.79 218.47,-103.79 211.47,-103.79"/>
</g>
<!-- UsersModule -->
<g id="node3" class="node">
<title>UsersModule</title>
<polygon fill="#8dd3c7" stroke="black" points="115.94,-84.8 112.94,-88.8 91.94,-88.8 88.94,-84.8 24.06,-84.8 24.06,-48.8 115.94,-48.8 115.94,-84.8"/>
<text text-anchor="middle" x="70" y="-62.6" font-family="Times,serif" font-size="14.00">UsersModule</text>
</g>
<!-- UsersModule&#45;&gt;ApiModule -->
<g id="edge3" class="edge">
<title>UsersModule&#45;&gt;ApiModule</title>
<path fill="none" stroke="black" d="M70,-84.91C70,-104.14 70,-131.8 70,-131.8 70,-131.8 187.76,-131.8 187.76,-131.8"/>
<polygon fill="black" stroke="black" points="187.76,-135.3 197.76,-131.8 187.76,-128.3 187.76,-135.3"/>
</g>
<!-- ApiService -->
<g id="node5" class="node">
<title>ApiService</title>
<ellipse fill="#fdb462" stroke="black" cx="416" cy="-66.8" rx="54.46" ry="18"/>
<text text-anchor="middle" x="416" y="-62.6" font-family="Times,serif" font-size="14.00">ApiService</text>
</g>
<!-- ApiService&#45;&gt;ApiModule -->
<g id="edge4" class="edge">
<title>ApiService&#45;&gt;ApiModule</title>
<path fill="none" stroke="black" d="M416,-84.91C416,-104.14 416,-131.8 416,-131.8 416,-131.8 288.39,-131.8 288.39,-131.8"/>
<polygon fill="black" stroke="black" points="288.39,-128.3 278.39,-131.8 288.39,-135.3 288.39,-128.3"/>
</g>
</g>
</svg>
