<?xml version="1.0" encoding="UTF-8" standalone="no"?>
<!DOCTYPE svg PUBLIC "-//W3C//DTD SVG 1.1//EN"
 "http://www.w3.org/Graphics/SVG/1.1/DTD/svg11.dtd">
<!-- Generated by graphviz version 5.0.0 (20220707.1540)
 -->
<!-- Title: dependencies Pages: 1 -->
<svg width="570pt" height="174pt"
 viewBox="0.00 0.00 570.00 173.80" xmlns="http://www.w3.org/2000/svg" xmlns:xlink="http://www.w3.org/1999/xlink">
<g id="graph0" class="graph" transform="scale(1 1) rotate(0) translate(4 169.8)">
<title>dependencies</title>
<polygon fill="white" stroke="transparent" points="-4,4 -4,-169.8 566,-169.8 566,4 -4,4"/>
<text text-anchor="middle" x="281" y="-8.2" font-family="sans-serif" font-size="14.00">dependencies</text>
<g id="clust1" class="cluster">
<title>cluster_AppModule</title>
<polygon fill="none" stroke="black" stroke-dasharray="1,5" points="8,-32.8 8,-157.8 554,-157.8 554,-32.8 8,-32.8"/>
</g>
<g id="clust3" class="cluster">
<title>cluster_AppModule_imports</title>
<polygon fill="none" stroke="black" points="16,-40.8 16,-92.8 546,-92.8 546,-40.8 16,-40.8"/>
</g>
<!-- ApiModule -->
<g id="node1" class="node">
<title>ApiModule</title>
<polygon fill="#8dd3c7" stroke="black" points="538.05,-84.8 535.05,-88.8 514.05,-88.8 511.05,-84.8 457.95,-84.8 457.95,-48.8 538.05,-48.8 538.05,-84.8"/>
<text text-anchor="middle" x="498" y="-62.6" font-family="Times,serif" font-size="14.00">ApiModule</text>
</g>
<!-- AppModule -->
<g id="node6" class="node">
<title>AppModule</title>
<polygon fill="#8dd3c7" stroke="black" points="326.66,-149.8 323.66,-153.8 302.66,-153.8 299.66,-149.8 243.34,-149.8 243.34,-113.8 326.66,-113.8 326.66,-149.8"/>
<text text-anchor="middle" x="285" y="-127.6" font-family="Times,serif" font-size="14.00">AppModule</text>
</g>
<!-- ApiModule&#45;&gt;AppModule -->
<g id="edge1" class="edge">
<title>ApiModule&#45;&gt;AppModule</title>
<path fill="none" stroke="black" d="M498,-85.08C498,-106.12 498,-137.8 498,-137.8 498,-137.8 336.83,-137.8 336.83,-137.8"/>
<polygon fill="black" stroke="black" points="336.83,-134.3 326.83,-137.8 336.83,-141.3 336.83,-134.3"/>
</g>
<!-- AuthModule -->
<g id="node2" class="node">
<title>AuthModule</title>
<polygon fill="#8dd3c7" stroke="black" points="439.55,-84.8 436.55,-88.8 415.55,-88.8 412.55,-84.8 352.45,-84.8 352.45,-48.8 439.55,-48.8 439.55,-84.8"/>
<text text-anchor="middle" x="396" y="-62.6" font-family="Times,serif" font-size="14.00">AuthModule</text>
</g>
<!-- AuthModule&#45;&gt;AppModule -->
<g id="edge2" class="edge">
<title>AuthModule&#45;&gt;AppModule</title>
<path fill="none" stroke="black" d="M396,-84.82C396,-102.17 396,-125.8 396,-125.8 396,-125.8 336.96,-125.8 336.96,-125.8"/>
<polygon fill="black" stroke="black" points="336.96,-122.3 326.96,-125.8 336.96,-129.3 336.96,-122.3"/>
</g>
<!-- GamesModule -->
<g id="node3" class="node">
<title>GamesModule</title>
<polygon fill="#8dd3c7" stroke="black" points="334.43,-84.8 331.43,-88.8 310.43,-88.8 307.43,-84.8 235.57,-84.8 235.57,-48.8 334.43,-48.8 334.43,-84.8"/>
<text text-anchor="middle" x="285" y="-62.6" font-family="Times,serif" font-size="14.00">GamesModule</text>
</g>
<!-- GamesModule&#45;&gt;AppModule -->
<g id="edge3" class="edge">
<title>GamesModule&#45;&gt;AppModule</title>
<path fill="none" stroke="black" d="M285,-84.91C285,-84.91 285,-103.79 285,-103.79"/>
<polygon fill="black" stroke="black" points="281.5,-103.79 285,-113.79 288.5,-103.79 281.5,-103.79"/>
</g>
<!-- PlayModule -->
<g id="node4" class="node">
<title>PlayModule</title>
<polygon fill="#8dd3c7" stroke="black" points="218.44,-84.8 215.44,-88.8 194.44,-88.8 191.44,-84.8 133.56,-84.8 133.56,-48.8 218.44,-48.8 218.44,-84.8"/>
<text text-anchor="middle" x="176" y="-62.6" font-family="Times,serif" font-size="14.00">PlayModule</text>
</g>
<!-- PlayModule&#45;&gt;AppModule -->
<g id="edge4" class="edge">
<title>PlayModule&#45;&gt;AppModule</title>
<path fill="none" stroke="black" d="M176,-84.82C176,-102.17 176,-125.8 176,-125.8 176,-125.8 233.17,-125.8 233.17,-125.8"/>
<polygon fill="black" stroke="black" points="233.17,-129.3 243.17,-125.8 233.17,-122.3 233.17,-129.3"/>
</g>
<!-- UsersModule -->
<g id="node5" class="node">
<title>UsersModule</title>
<polygon fill="#8dd3c7" stroke="black" points="115.94,-84.8 112.94,-88.8 91.94,-88.8 88.94,-84.8 24.06,-84.8 24.06,-48.8 115.94,-48.8 115.94,-84.8"/>
<text text-anchor="middle" x="70" y="-62.6" font-family="Times,serif" font-size="14.00">UsersModule</text>
</g>
<!-- UsersModule&#45;&gt;AppModule -->
<g id="edge5" class="edge">
<title>UsersModule&#45;&gt;AppModule</title>
<path fill="none" stroke="black" d="M70,-85.08C70,-106.12 70,-137.8 70,-137.8 70,-137.8 233.29,-137.8 233.29,-137.8"/>
<polygon fill="black" stroke="black" points="233.29,-141.3 243.29,-137.8 233.29,-134.3 233.29,-141.3"/>
</g>
</g>
</svg>
