<?xml version="1.0" encoding="UTF-8" standalone="no"?>
<!DOCTYPE svg PUBLIC "-//W3C//DTD SVG 1.1//EN"
 "http://www.w3.org/Graphics/SVG/1.1/DTD/svg11.dtd">
<!-- Generated by graphviz version 5.0.0 (20220707.1540)
 -->
<!-- Title: dependencies Pages: 1 -->
<svg width="342pt" height="247pt"
 viewBox="0.00 0.00 342.00 246.80" xmlns="http://www.w3.org/2000/svg" xmlns:xlink="http://www.w3.org/1999/xlink">
<g id="graph0" class="graph" transform="scale(1 1) rotate(0) translate(4 242.8)">
<title>dependencies</title>
<polygon fill="white" stroke="transparent" points="-4,4 -4,-242.8 338,-242.8 338,4 -4,4"/>
<text text-anchor="middle" x="167" y="-8.2" font-family="sans-serif" font-size="14.00">dependencies</text>
<g id="clust1" class="cluster">
<title>cluster_GamesModule</title>
<polygon fill="none" stroke="black" stroke-dasharray="1,5" points="8,-32.8 8,-230.8 326,-230.8 326,-32.8 8,-32.8"/>
</g>
<g id="clust4" class="cluster">
<title>cluster_GamesModule_exports</title>
<polygon fill="none" stroke="black" points="109,-170.8 109,-222.8 225,-222.8 225,-170.8 109,-170.8"/>
</g>
<g id="clust6" class="cluster">
<title>cluster_GamesModule_providers</title>
<polygon fill="none" stroke="black" points="16,-40.8 16,-92.8 318,-92.8 318,-40.8 16,-40.8"/>
</g>
<!-- GamesService  -->
<g id="node1" class="node">
<title>GamesService </title>
<polygon fill="#fb8072" stroke="black" points="217.36,-214.8 116.64,-214.8 116.64,-178.8 217.36,-178.8 217.36,-214.8"/>
<text text-anchor="middle" x="167" y="-192.6" font-family="Times,serif" font-size="14.00">GamesService </text>
</g>
<!-- GamesModule -->
<g id="node2" class="node">
<title>GamesModule</title>
<polygon fill="#8dd3c7" stroke="black" points="216.43,-149.8 213.43,-153.8 192.43,-153.8 189.43,-149.8 117.57,-149.8 117.57,-113.8 216.43,-113.8 216.43,-149.8"/>
<text text-anchor="middle" x="167" y="-127.6" font-family="Times,serif" font-size="14.00">GamesModule</text>
</g>
<!-- GamesModule&#45;&gt;GamesService  -->
<g id="edge1" class="edge">
<title>GamesModule&#45;&gt;GamesService </title>
<path fill="none" stroke="black" stroke-dasharray="5,2" d="M167,-149.91C167,-149.91 167,-168.79 167,-168.79"/>
<polygon fill="black" stroke="black" points="163.5,-168.79 167,-178.79 170.5,-168.79 163.5,-168.79"/>
</g>
<!-- GamesService -->
<g id="node3" class="node">
<title>GamesService</title>
<ellipse fill="#fdb462" stroke="black" cx="243" cy="-66.8" rx="66.62" ry="18"/>
<text text-anchor="middle" x="243" y="-62.6" font-family="Times,serif" font-size="14.00">GamesService</text>
</g>
<!-- GamesService&#45;&gt;GamesModule -->
<g id="edge2" class="edge">
<title>GamesService&#45;&gt;GamesModule</title>
<path fill="none" stroke="black" d="M196.2,-79.95C196.2,-79.95 196.2,-103.49 196.2,-103.49"/>
<polygon fill="black" stroke="black" points="192.7,-103.49 196.2,-113.49 199.7,-103.49 192.7,-103.49"/>
</g>
<!-- PrismaService -->
<g id="node4" class="node">
<title>PrismaService</title>
<ellipse fill="#fdb462" stroke="black" cx="91" cy="-66.8" rx="66.64" ry="18"/>
<text text-anchor="middle" x="91" y="-62.6" font-family="Times,serif" font-size="14.00">PrismaService</text>
</g>
<!-- PrismaService&#45;&gt;GamesModule -->
<g id="edge3" class="edge">
<title>PrismaService&#45;&gt;GamesModule</title>
<path fill="none" stroke="black" d="M137.8,-79.95C137.8,-79.95 137.8,-103.49 137.8,-103.49"/>
<polygon fill="black" stroke="black" points="134.3,-103.49 137.8,-113.49 141.3,-103.49 134.3,-103.49"/>
</g>
</g>
</svg>
