<?xml version="1.0" encoding="UTF-8" standalone="no"?>
<!DOCTYPE svg PUBLIC "-//W3C//DTD SVG 1.1//EN"
 "http://www.w3.org/Graphics/SVG/1.1/DTD/svg11.dtd">
<!-- Generated by graphviz version 5.0.0 (20220707.1540)
 -->
<!-- Title: dependencies Pages: 1 -->
<svg width="260pt" height="174pt"
 viewBox="0.00 0.00 260.00 173.80" xmlns="http://www.w3.org/2000/svg" xmlns:xlink="http://www.w3.org/1999/xlink">
<g id="graph0" class="graph" transform="scale(1 1) rotate(0) translate(4 169.8)">
<title>dependencies</title>
<polygon fill="white" stroke="transparent" points="-4,4 -4,-169.8 256,-169.8 256,4 -4,4"/>
<text text-anchor="middle" x="126" y="-8.2" font-family="sans-serif" font-size="14.00">dependencies</text>
<g id="clust1" class="cluster">
<title>cluster_PlayModule</title>
<polygon fill="none" stroke="black" stroke-dasharray="1,5" points="8,-32.8 8,-157.8 244,-157.8 244,-32.8 8,-32.8"/>
</g>
<g id="clust3" class="cluster">
<title>cluster_PlayModule_imports</title>
<polygon fill="none" stroke="black" points="16,-40.8 16,-92.8 236,-92.8 236,-40.8 16,-40.8"/>
</g>
<!-- AuthModule -->
<g id="node1" class="node">
<title>AuthModule</title>
<polygon fill="#8dd3c7" stroke="black" points="227.55,-84.8 224.55,-88.8 203.55,-88.8 200.55,-84.8 140.45,-84.8 140.45,-48.8 227.55,-48.8 227.55,-84.8"/>
<text text-anchor="middle" x="184" y="-62.6" font-family="Times,serif" font-size="14.00">AuthModule</text>
</g>
<!-- PlayModule -->
<g id="node3" class="node">
<title>PlayModule</title>
<polygon fill="#8dd3c7" stroke="black" points="170.44,-149.8 167.44,-153.8 146.44,-153.8 143.44,-149.8 85.56,-149.8 85.56,-113.8 170.44,-113.8 170.44,-149.8"/>
<text text-anchor="middle" x="128" y="-127.6" font-family="Times,serif" font-size="14.00">PlayModule</text>
</g>
<!-- AuthModule&#45;&gt;PlayModule -->
<g id="edge1" class="edge">
<title>AuthModule&#45;&gt;PlayModule</title>
<path fill="none" stroke="black" d="M155.22,-84.91C155.22,-84.91 155.22,-103.79 155.22,-103.79"/>
<polygon fill="black" stroke="black" points="151.72,-103.79 155.22,-113.79 158.72,-103.79 151.72,-103.79"/>
</g>
<!-- GamesModule -->
<g id="node2" class="node">
<title>GamesModule</title>
<polygon fill="#8dd3c7" stroke="black" points="122.43,-84.8 119.43,-88.8 98.43,-88.8 95.43,-84.8 23.57,-84.8 23.57,-48.8 122.43,-48.8 122.43,-84.8"/>
<text text-anchor="middle" x="73" y="-62.6" font-family="Times,serif" font-size="14.00">GamesModule</text>
</g>
<!-- GamesModule&#45;&gt;PlayModule -->
<g id="edge2" class="edge">
<title>GamesModule&#45;&gt;PlayModule</title>
<path fill="none" stroke="black" d="M104,-84.91C104,-84.91 104,-103.79 104,-103.79"/>
<polygon fill="black" stroke="black" points="100.5,-103.79 104,-113.79 107.5,-103.79 100.5,-103.79"/>
</g>
</g>
</svg>
